<svg xmlns="http://www.w3.org/2000/svg" fill="none" viewBox="0 0 100 100"><g stroke-linecap="round" stroke-linejoin="round"><g transform-origin="50px 50px"><polygon fill="#e08b66" points="50 10 50 30 32.68 40 32.68 20"/><polygon fill="#f3a683" points="50 10 67.32 20 67.32 40 50 30"/></g><g transform="rotate(60)" transform-origin="50px 50px"><polygon fill="#e08b66" points="50 10 50 30 32.68 40 32.68 20"/><polygon fill="#f3a683" points="50 10 67.32 20 67.32 40 50 30"/></g><g transform="rotate(120)" transform-origin="50px 50px"><polygon fill="#e08b66" points="50 10 50 30 32.68 40 32.68 20"/><polygon fill="#f3a683" points="50 10 67.32 20 67.32 40 50 30"/></g><g transform="rotate(180)" transform-origin="50px 50px"><polygon fill="#e08b66" points="50 10 50 30 32.68 40 32.68 20"/><polygon fill="#f3a683" points="50 10 67.32 20 67.32 40 50 30"/></g><g transform="rotate(240)" transform-origin="50px 50px"><polygon fill="#e08b66" points="50 10 50 30 32.68 40 32.68 20"/><polygon fill="#f3a683" points="50 10 67.32 20 67.32 40 50 30"/></g><g transform="rotate(300)" transform-origin="50px 50px"><polygon fill="#e08b66" points="50 10 50 30 32.68 40 32.68 20"/><polygon fill="#f3a683" points="50 10 67.32 20 67.32 40 50 30"/></g></g></svg>